<svg xmlns="http://www.w3.org/2000/svg" width="1em" height="1em" viewBox="0 0 48 48"><g fill="none"><path fill="#652f9e" d="M44 24a2 2 0 1 0-4 0h4ZM24 8a2 2 0 1 0 0-4v4Zm15 32H9v4h30v-4ZM8 39V9H4v30h4Zm32-15v15h4V24h-4ZM9 8h15V4H9v4Zm0 32a1 1 0 0 1-1-1H4a5 5 0 0 0 5 5v-4Zm30 4a5 5 0 0 0 5-5h-4a1 1 0 0 1-1 1v4ZM8 9a1 1 0 0 1 1-1V4a5 5 0 0 0-5 5h4Z"/><path stroke="#652f9e" stroke-linecap="round" stroke-linejoin="round" stroke-width="4" d="m6 35l10.693-9.802a2 2 0 0 1 2.653-.044L32 36m-4-5l4.773-4.773a2 2 0 0 1 2.615-.186L42 31M32 13l5 5l5-5m-5-7v12"/></g></svg>