<?xml version="1.0" encoding="UTF-8" standalone="no"?>
<!-- Created with Inkscape (http://www.inkscape.org/) -->

<svg
   width="421"
   height="60"
   viewBox="0 0 111.38974 15.875007"
   version="1.1"
   id="svg5"
   xmlns="http://www.w3.org/2000/svg"
   xmlns:svg="http://www.w3.org/2000/svg">
  <defs
     id="defs2">
    <rect
       x="110.05173"
       y="1.9132385"
       width="281.40683"
       height="58.713776"
       id="rect6852" />
  </defs>
  <g
     id="layer1">
    <g
       id="g886"
       transform="matrix(0.03544122,0,0,0.03544122,-1.1191533,-1.1295952)">
      <path
         fill="#652f9e"
         d="m 477.64,38.26 a 4.75,4.75 0 0 0 -3.55,-3.66 c -58.57,-14.32 -193.9,36.71 -267.22,110 a 317,317 0 0 0 -35.63,42.1 c -22.61,-2 -45.22,-0.33 -64.49,8.07 C 52.38,218.7 36.55,281.14 32.14,308 a 9.64,9.64 0 0 0 10.55,11.2 L 130,309.57 a 194.1,194.1 0 0 0 1.19,19.7 19.53,19.53 0 0 0 5.7,12 L 170.7,375 a 19.59,19.59 0 0 0 12,5.7 193.53,193.53 0 0 0 19.59,1.19 l -9.58,87.2 a 9.65,9.65 0 0 0 11.2,10.55 c 26.81,-4.3 89.36,-20.13 113.15,-74.5 8.4,-19.27 10.12,-41.77 8.18,-64.27 a 317.66,317.66 0 0 0 42.21,-35.64 C 441,232.05 491.74,99.74 477.64,38.26 Z M 294.07,217.93 a 48,48 0 1 1 67.86,0 47.95,47.95 0 0 1 -67.86,0 z"
         id="path874" />
      <path
         fill="#652f9e"
         d="m 168.4,399.43 c -5.48,5.49 -14.27,7.63 -24.85,9.46 -23.77,4.05 -44.76,-16.49 -40.49,-40.52 1.63,-9.11 6.45,-21.88 9.45,-24.88 a 4.37,4.37 0 0 0 -3.65,-7.45 60,60 0 0 0 -35.13,17.12 C 50.22,376.69 48,464 48,464 c 0,0 87.36,-2.22 110.87,-25.75 A 59.69,59.69 0 0 0 176,403.09 c 0.37,-4.18 -4.72,-6.67 -7.6,-3.66 z"
         id="path876" />
    </g>
    <g
       aria-label="Dev Links"
       transform="matrix(0.43855743,0,0,0.43855743,-30.815211,-2.5200737)"
       id="text6850"
       style="font-size:40px;line-height:1.25;white-space:pre;shape-inside:url(#rect6852);fill:#652f9e">
      <path
         d="m 119.49078,34.13375 q 0.44,0.04 1,0.08 0.6,0 1.4,0 4.68,0 6.92,-2.36 2.28,-2.36 2.28,-6.52 0,-4.36 -2.16,-6.6 -2.16,-2.24 -6.84,-2.24 -0.64,0 -1.32,0.04 -0.68,0 -1.28,0.08 z m 18.04,-8.8 q 0,3.6 -1.12,6.28 -1.12,2.68 -3.2,4.44 -2.04,1.76 -5,2.64 -2.96,0.88 -6.64,0.88 -1.68,0 -3.92,-0.16 -2.24,-0.12 -4.4,-0.56 v -27 q 2.16,-0.4 4.48,-0.52 2.36,-0.16 4.04,-0.16 3.56,0 6.44,0.8 2.92,0.8 5,2.52 2.08,1.72 3.2,4.4 1.12,2.68 1.12,6.44 z"
         style="font-weight:bold;font-family:Ubuntu;-inkscape-font-specification:'Ubuntu, Bold'"
         id="path52752" />
      <path
         d="m 141.33076,28.85375 q 0,-2.8 0.84,-4.88 0.88,-2.12 2.28,-3.52 1.4,-1.4 3.2,-2.12 1.84,-0.72 3.76,-0.72 4.48,0 7.08,2.76 2.6,2.72 2.6,8.04 0,0.52 -0.04,1.16 -0.04,0.6 -0.08,1.08 h -13.52 q 0.2,1.84 1.72,2.92 1.52,1.08 4.08,1.08 1.64,0 3.2,-0.28 1.6,-0.32 2.6,-0.76 l 0.8,4.84 q -0.48,0.24 -1.28,0.48 -0.8,0.24 -1.8,0.4 -0.96,0.2 -2.08,0.32 -1.12,0.12 -2.24,0.12 -2.84,0 -4.96,-0.84 -2.08,-0.84 -3.48,-2.28 -1.36,-1.48 -2.04,-3.48 -0.64,-2 -0.64,-4.32 z m 14,-2.28 q -0.04,-0.76 -0.28,-1.48 -0.2,-0.72 -0.68,-1.28 -0.44,-0.56 -1.16,-0.92 -0.68,-0.36 -1.72,-0.36 -1,0 -1.72,0.36 -0.72,0.32 -1.2,0.88 -0.48,0.56 -0.76,1.32 -0.24,0.72 -0.36,1.48 z"
         style="font-weight:bold;font-family:Ubuntu;-inkscape-font-specification:'Ubuntu, Bold'"
         id="path52754" />
      <path
         d="m 171.41075,39.21375 q -2.04,-4 -4.16,-9.36 -2.08,-5.36 -3.96,-11.68 h 6.32 q 0.4,1.56 0.92,3.4 0.56,1.8 1.12,3.68 0.6,1.84 1.16,3.6 0.6,1.76 1.16,3.2 0.52,-1.44 1.12,-3.2 0.6,-1.76 1.16,-3.6 0.6,-1.88 1.12,-3.68 0.56,-1.84 0.96,-3.4 h 6.16 q -1.88,6.32 -4,11.68 -2.08,5.36 -4.12,9.36 z"
         style="font-weight:bold;font-family:Ubuntu;-inkscape-font-specification:'Ubuntu, Bold'"
         id="path52756" />
      <path
         d="m 216.21071,33.85375 v 5.36 h -18.52 v -27.72 h 6.24 v 22.36 z"
         style="font-weight:bold;font-family:Ubuntu;-inkscape-font-specification:'Ubuntu, Bold'"
         id="path52758" />
      <path
         d="m 225.7707,39.21375 h -5.96 v -21.04 h 5.96 z m 0.56,-27.12 q 0,1.64 -1.08,2.6 -1.04,0.92 -2.48,0.92 -1.44,0 -2.52,-0.92 -1.04,-0.96 -1.04,-2.6 0,-1.64 1.04,-2.5599997 1.08,-0.96 2.52,-0.96 1.44,0 2.48,0.96 1.08,0.9199997 1.08,2.5599997 z"
         style="font-weight:bold;font-family:Ubuntu;-inkscape-font-specification:'Ubuntu, Bold'"
         id="path52760" />
      <path
         d="m 231.37068,18.89375 q 1.52,-0.44 3.92,-0.8 2.4,-0.4 5.04,-0.4 2.68,0 4.44,0.72 1.8,0.68 2.84,1.96 1.04,1.28 1.48,3.04 0.44,1.76 0.44,3.92 v 11.88 h -5.96 v -11.16 q 0,-2.88 -0.76,-4.08 -0.76,-1.2 -2.84,-1.2 -0.64,0 -1.36,0.08 -0.72,0.04 -1.28,0.12 v 16.24 h -5.96 z"
         style="font-weight:bold;font-family:Ubuntu;-inkscape-font-specification:'Ubuntu, Bold'"
         id="path52762" />
      <path
         d="m 260.89063,25.77375 q 0.88,-0.96 1.8,-2 0.96,-1.04 1.84,-2.04 0.88,-1.04 1.64,-1.96 0.8,-0.92 1.36,-1.6 h 7.08 q -2.12,2.44 -4.16,4.68 -2,2.2 -4.4,4.56 1.2,1.08 2.48,2.6 1.28,1.48 2.48,3.08 1.2,1.6 2.2,3.2 1,1.6 1.68,2.92 h -6.84 q -0.64,-1.04 -1.48,-2.28 -0.8,-1.28 -1.72,-2.52 -0.92,-1.28 -1.96,-2.44 -1,-1.16 -2,-1.96 v 9.2 h -5.96 V 9.1337503 l 5.96,-0.96 z"
         style="font-weight:bold;font-family:Ubuntu;-inkscape-font-specification:'Ubuntu, Bold'"
         id="path52764" />
      <path
         d="m 284.13057,34.93375 q 1.64,0 2.32,-0.32 0.68,-0.32 0.68,-1.24 0,-0.72 -0.88,-1.24 -0.88,-0.56 -2.68,-1.24 -1.4,-0.52 -2.56,-1.08 -1.12,-0.56 -1.92,-1.32 -0.8,-0.8 -1.24,-1.88 -0.44,-1.08 -0.44,-2.6 0,-2.96 2.2,-4.68 2.2,-1.72 6.04,-1.72 1.92,0 3.68,0.36 1.76,0.32 2.8,0.72 l -1.04,4.64 q -1.04,-0.36 -2.28,-0.64 -1.2,-0.28 -2.72,-0.28 -2.8,0 -2.8,1.56 0,0.36 0.12,0.64 0.12,0.28 0.48,0.56 0.36,0.24 0.96,0.56 0.64,0.28 1.6,0.64 1.96,0.72 3.24,1.44 1.28,0.68 2,1.52 0.76,0.8 1.04,1.8 0.32,1 0.32,2.32 0,3.12 -2.36,4.72 -2.32,1.6 -6.6,1.6 -2.8,0 -4.68,-0.48 -1.84,-0.48 -2.56,-0.8 l 1,-4.84 q 1.52,0.6 3.12,0.96 1.6,0.32 3.16,0.32 z"
         style="font-weight:bold;font-family:Ubuntu;-inkscape-font-specification:'Ubuntu, Bold'"
         id="path52766" />
    </g>
  </g>
</svg>
